<?xml version="1.0" encoding="UTF-8"?>
<svg xmlns="http://www.w3.org/2000/svg" viewBox="0 0 500 500">
  <defs>
    <style>
      .cls-1, .cls-2, .cls-3, .cls-4, .cls-5, .cls-6, .cls-7, .cls-8, .cls-9 {
        stroke-linecap: round;
        stroke-linejoin: round;
      }

      .cls-1, .cls-3, .cls-4, .cls-5, .cls-10, .cls-6, .cls-7, .cls-8 {
        stroke: #263238;
      }

      .cls-1, .cls-10, .cls-6, .cls-9 {
        fill: none;
      }

      .cls-1, .cls-9 {
        stroke-width: 3px;
      }

      .cls-11 {
        opacity: .7;
      }

      .cls-11, .cls-5 {
        fill: #fff;
      }

      .cls-2, .cls-7, .cls-12 {
        fill: #263238;
      }

      .cls-2, .cls-9 {
        stroke: #fff;
      }

      .cls-3 {
        fill: #a8dadc;
      }

      .cls-4, .cls-13 {
        fill: #92e3a9;
      }

      .cls-10 {
        stroke-miterlimit: 10;
      }

      .cls-14 {
        fill: #1d3557;
      }

      .cls-8 {
        fill: #457b9d;
      }
    </style>
  </defs>
  <g id="Background_Simple" data-name="Background Simple">
    <g>
      <path class="cls-13" d="m471.01,238.3c-4.94,41.8-24.02,90.4-62.14,112.73-57.6,33.74-52.77,85.64-165.19,108.2-17.53,3.52-34.16,5-49.85,4.71-8.43-.16-16.59-.84-24.46-1.99-71.45-10.44-119.53-60.1-137.17-120.05-23.21-78.85,23.14-130.46,53.86-161.56,30.72-31.1,53.23-128,163.57-151.05,16.82-3.51,34.03-5.3,51.23-4.87,39.26.96,82.08,13.85,111.71,40.76,2.22,2.02,4.39,4.12,6.5,6.28,41.18,42.27,58.68,109.86,51.95,166.85Z"/>
      <path class="cls-11" d="m471.01,238.3c-4.94,41.8-24.02,90.4-62.14,112.73-57.6,33.74-52.77,85.64-165.19,108.2-17.53,3.52-34.16,5-49.85,4.71-8.43-.16-16.59-.84-24.46-1.99-71.45-10.44-119.53-60.1-137.17-120.05-23.21-78.85,23.14-130.46,53.86-161.56,30.72-31.1,53.23-128,163.57-151.05,16.82-3.51,34.03-5.3,51.23-4.87,39.26.96,82.08,13.85,111.71,40.76,2.22,2.02,4.39,4.12,6.5,6.28,41.18,42.27,58.68,109.86,51.95,166.85Z"/>
    </g>
    <rect class="cls-14" width="500" height="500"/>
  </g>
  <g id="Table">
    <g>
      <line class="cls-6" x1="463.78" y1="282.93" x2="478.97" y2="282.93"/>
      <line class="cls-6" x1="22.6" y1="282.93" x2="456.98" y2="282.93"/>
    </g>
  </g>
  <g id="Gears">
    <g>
      <g>
        <path class="cls-10" d="m440.46,165.83v-7.83l-7.5-1.07c-.7-3.83-2.19-7.39-4.31-10.49l4.56-6.08-5.54-5.54-6.06,4.54c-3.09-2.14-6.63-3.65-10.46-4.37l-1.08-7.53h-7.83l-1.07,7.5c-3.83.7-7.39,2.19-10.49,4.31l-6.08-4.56-5.54,5.54,4.54,6.06c-2.14,3.09-3.65,6.63-4.37,10.46l-7.53,1.08v7.83l7.5,1.07c.7,3.83,2.19,7.39,4.31,10.49l-4.56,6.08,5.54,5.54,6.06-4.54c3.09,2.14,6.63,3.65,10.46,4.37l1.08,7.53h7.83l1.07-7.5c3.83-.7,7.39-2.19,10.49-4.31l6.08,4.56,5.54-5.54-4.54-6.06c2.14-3.09,3.65-6.63,4.37-10.46l7.53-1.08Zm-34.37,14.99c-10.48,0-18.98-8.5-18.98-18.98s8.5-18.98,18.98-18.98,18.98,8.5,18.98,18.98-8.5,18.98-18.98,18.98Z"/>
        <path class="cls-10" d="m462.16,212.54v-5.6l-5.36-.77c-.5-2.74-1.56-5.29-3.08-7.5l3.26-4.35-3.96-3.96-4.33,3.25c-2.21-1.53-4.74-2.61-7.48-3.13l-.77-5.38h-5.6l-.77,5.36c-2.74.5-5.29,1.56-7.5,3.08l-4.35-3.26-3.96,3.96,3.25,4.33c-1.53,2.21-2.61,4.74-3.13,7.48l-5.38.77v5.6l5.36.77c.5,2.74,1.56,5.29,3.08,7.5l-3.26,4.35,3.96,3.96,4.33-3.25c2.21,1.53,4.74,2.61,7.48,3.13l.77,5.38h5.6l.77-5.36c2.74-.5,5.29-1.56,7.5-3.08l4.35,3.26,3.96-3.96-3.25-4.33c1.53-2.21,2.61-4.74,3.13-7.48l5.38-.77Zm-24.58,10.72c-7.5,0-13.57-6.08-13.57-13.57s6.08-13.57,13.57-13.57,13.57,6.08,13.57,13.57-6.08,13.57-13.57,13.57Z"/>
      </g>
      <g>
        <path class="cls-10" d="m66.52,208.69v7.14l6.84.98c.64,3.5,2,6.74,3.93,9.57l-4.16,5.55,5.05,5.05,5.53-4.15c2.82,1.95,6.05,3.33,9.55,3.99l.98,6.87h7.14l.98-6.84c3.5-.64,6.74-2,9.57-3.93l5.55,4.16,5.05-5.05-4.15-5.53c1.95-2.82,3.33-6.05,3.99-9.55l6.87-.98v-7.14l-6.84-.98c-.64-3.5-2-6.74-3.93-9.57l4.16-5.55-5.05-5.05-5.53,4.15c-2.82-1.95-6.05-3.33-9.55-3.99l-.98-6.87h-7.14l-.98,6.84c-3.5.64-6.74,2-9.57,3.93l-5.55-4.16-5.05,5.05,4.15,5.53c-1.95,2.82-3.33,6.05-3.99,9.55l-6.87.98Zm31.36-13.68c9.56,0,17.32,7.75,17.32,17.32s-7.75,17.32-17.32,17.32-17.32-7.75-17.32-17.32,7.75-17.32,17.32-17.32Z"/>
        <path class="cls-10" d="m48.85,169.81v4.36l4.17.6c.39,2.13,1.22,4.11,2.4,5.84l-2.54,3.38,3.08,3.08,3.37-2.53c1.72,1.19,3.69,2.03,5.82,2.43l.6,4.19h4.36l.6-4.17c2.13-.39,4.11-1.22,5.84-2.4l3.38,2.54,3.08-3.08-2.53-3.37c1.19-1.72,2.03-3.69,2.43-5.82l4.19-.6v-4.36l-4.17-.6c-.39-2.13-1.22-4.11-2.4-5.84l2.54-3.38-3.08-3.08-3.37,2.53c-1.72-1.19-3.69-2.03-5.82-2.43l-.6-4.19h-4.36l-.6,4.17c-2.13.39-4.11,1.22-5.84,2.4l-3.38-2.54-3.08,3.08,2.53,3.37c-1.19,1.72-2.03,3.69-2.43,5.82l-4.19.6Zm19.13-8.34c5.83,0,10.56,4.73,10.56,10.56s-4.73,10.56-10.56,10.56-10.56-4.73-10.56-10.56,4.73-10.56,10.56-10.56Z"/>
        <path class="cls-10" d="m216.7,90.3v5.98l5.73.82c.53,2.93,1.67,5.65,3.29,8.02l-3.48,4.65,4.23,4.23,4.63-3.47c2.36,1.63,5.07,2.79,8,3.34l.82,5.75h5.98l.82-5.73c2.93-.53,5.65-1.67,8.02-3.29l4.65,3.48,4.23-4.23-3.47-4.63c1.63-2.36,2.79-5.07,3.34-8l5.75-.82v-5.98l-5.73-.82c-.53-2.93-1.67-5.65-3.29-8.02l3.48-4.65-4.23-4.23-4.63,3.47c-2.36-1.63-5.07-2.79-8-3.34l-.82-5.75h-5.98l-.82,5.73c-2.93.53-5.65,1.67-8.02,3.29l-4.65-3.48-4.23,4.23,3.47,4.63c-1.63,2.36-2.79,5.07-3.34,8l-5.75.82Zm26.27-11.46c8.01,0,14.51,6.49,14.51,14.51s-6.49,14.51-14.51,14.51-14.51-6.49-14.51-14.51,6.49-14.51,14.51-14.51Z"/>
      </g>
    </g>
  </g>
  <g id="Device">
    <g>
      <path class="cls-8" d="m114.91,90h275.1c4.4,0,7.97,3.57,7.97,7.97v191.45H106.94V97.97c0-4.4,3.57-7.97,7.97-7.97Z"/>
      <polygon class="cls-5" points="441.63 377.57 63.28 377.57 106.94 289.41 397.98 289.41 441.63 377.57"/>
      <rect class="cls-4" x="124.56" y="105.79" width="255.78" height="167.84"/>
      <g>
        <polygon class="cls-2" points="240.32 317.32 240.82 306.58 225.44 306.58 224.42 317.32 240.32 317.32"/>
        <polygon class="cls-2" points="272.1 317.32 271.58 306.58 256.2 306.58 256.21 317.32 272.1 317.32"/>
        <polygon class="cls-2" points="354.87 328.8 371.31 328.8 367.45 317.32 351.56 317.32 354.87 328.8"/>
        <polygon class="cls-2" points="224.42 317.32 225.44 306.58 210.06 306.58 208.53 317.32 224.42 317.32"/>
        <polygon class="cls-2" points="192.64 317.32 194.69 306.58 179.31 306.58 176.75 317.32 192.64 317.32"/>
        <polygon class="cls-2" points="335.67 317.32 333.09 306.58 317.71 306.58 319.78 317.32 335.67 317.32"/>
        <polygon class="cls-2" points="351.56 317.32 348.47 306.58 333.09 306.58 335.67 317.32 351.56 317.32"/>
        <polygon class="cls-2" points="176.75 317.32 179.31 306.58 163.93 306.58 160.85 317.32 176.75 317.32"/>
        <polygon class="cls-2" points="287.99 317.32 286.95 306.58 271.58 306.58 272.1 317.32 287.99 317.32"/>
        <polygon class="cls-2" points="367.45 317.32 363.84 306.58 348.47 306.58 351.56 317.32 367.45 317.32"/>
        <polygon class="cls-2" points="319.78 317.32 317.71 306.58 302.33 306.58 303.88 317.32 319.78 317.32"/>
        <polygon class="cls-2" points="303.88 317.32 302.33 306.58 286.95 306.58 287.99 317.32 303.88 317.32"/>
        <polygon class="cls-2" points="256.21 317.32 256.2 306.58 240.82 306.58 240.32 317.32 256.21 317.32"/>
        <polygon class="cls-2" points="144.96 317.32 129.07 317.32 124.68 328.8 141.12 328.8 144.96 317.32"/>
        <polygon class="cls-2" points="148.55 306.58 133.17 306.58 129.07 317.32 144.96 317.32 148.55 306.58"/>
        <polygon class="cls-2" points="160.85 317.32 163.93 306.58 148.55 306.58 144.96 317.32 160.85 317.32"/>
        <polygon class="cls-2" points="119.98 341.11 114.93 354.34 132.59 354.34 137.01 341.11 119.98 341.11"/>
        <polygon class="cls-2" points="141.12 328.8 124.68 328.8 119.98 341.11 137.01 341.11 141.12 328.8"/>
        <polygon class="cls-2" points="137.01 341.11 132.59 354.34 150.26 354.34 154.04 341.11 137.01 341.11"/>
        <polygon class="cls-2" points="208.53 317.32 210.06 306.58 194.69 306.58 192.64 317.32 208.53 317.32"/>
        <polygon class="cls-2" points="206.89 328.8 208.53 317.32 192.64 317.32 190.45 328.8 206.89 328.8"/>
        <polygon class="cls-2" points="190.45 328.8 192.64 317.32 176.75 317.32 174.01 328.8 190.45 328.8"/>
        <polygon class="cls-2" points="223.33 328.8 224.42 317.32 208.53 317.32 206.89 328.8 223.33 328.8"/>
        <polygon class="cls-2" points="160.85 317.32 144.96 317.32 141.12 328.8 157.57 328.8 160.85 317.32"/>
        <polygon class="cls-2" points="358.42 341.11 375.45 341.11 371.31 328.8 354.87 328.8 358.42 341.11"/>
        <polygon class="cls-2" points="174.01 328.8 176.75 317.32 160.85 317.32 157.57 328.8 174.01 328.8"/>
        <polygon class="cls-2" points="141.12 328.8 137.01 341.11 154.04 341.11 157.57 328.8 141.12 328.8"/>
        <polygon class="cls-2" points="321.99 328.8 319.78 317.32 303.88 317.32 305.54 328.8 321.99 328.8"/>
        <polygon class="cls-2" points="305.54 328.8 303.88 317.32 287.99 317.32 289.1 328.8 305.54 328.8"/>
        <polygon class="cls-2" points="354.87 328.8 351.56 317.32 335.67 317.32 338.43 328.8 354.87 328.8"/>
        <polygon class="cls-2" points="256.22 328.8 256.21 317.32 240.32 317.32 239.78 328.8 256.22 328.8"/>
        <polygon class="cls-2" points="289.1 328.8 287.99 317.32 272.1 317.32 272.66 328.8 289.1 328.8"/>
        <polygon class="cls-2" points="272.66 328.8 272.1 317.32 256.21 317.32 256.22 328.8 272.66 328.8"/>
        <polygon class="cls-2" points="239.78 328.8 240.32 317.32 224.42 317.32 223.33 328.8 239.78 328.8"/>
        <polygon class="cls-2" points="289.1 328.8 290.29 341.11 307.32 341.11 305.54 328.8 289.1 328.8"/>
        <polygon class="cls-2" points="305.54 328.8 307.32 341.11 324.35 341.11 321.99 328.8 305.54 328.8"/>
        <polygon class="cls-2" points="157.57 328.8 154.04 341.11 171.07 341.11 174.01 328.8 157.57 328.8"/>
        <polygon class="cls-2" points="321.99 328.8 324.35 341.11 341.39 341.11 338.43 328.8 321.99 328.8"/>
        <polygon class="cls-2" points="256.22 328.8 256.23 341.11 273.26 341.11 272.66 328.8 256.22 328.8"/>
        <polygon class="cls-2" points="338.43 328.8 341.39 341.11 358.42 341.11 354.87 328.8 338.43 328.8"/>
        <polygon class="cls-2" points="272.66 328.8 273.26 341.11 290.29 341.11 289.1 328.8 272.66 328.8"/>
        <polygon class="cls-2" points="190.45 328.8 188.1 341.11 205.14 341.11 206.89 328.8 190.45 328.8"/>
        <polygon class="cls-2" points="174.01 328.8 171.07 341.11 188.1 341.11 190.45 328.8 174.01 328.8"/>
        <polygon class="cls-2" points="239.78 328.8 239.2 341.11 256.23 341.11 256.22 328.8 239.78 328.8"/>
        <polygon class="cls-2" points="223.33 328.8 222.17 341.11 239.2 341.11 239.78 328.8 223.33 328.8"/>
        <polygon class="cls-2" points="206.89 328.8 205.14 341.11 222.17 341.11 223.33 328.8 206.89 328.8"/>
        <polygon class="cls-2" points="338.43 328.8 335.67 317.32 319.78 317.32 321.99 328.8 338.43 328.8"/>
        <polygon class="cls-2" points="148.55 306.58 152.23 295.58 137.37 295.58 133.17 306.58 148.55 306.58"/>
        <polygon class="cls-2" points="133.17 306.58 118.98 306.58 114.4 317.32 129.07 317.32 133.17 306.58"/>
        <polygon class="cls-2" points="137.37 295.58 123.67 295.58 118.98 306.58 133.17 306.58 137.37 295.58"/>
        <polygon class="cls-2" points="129.07 317.32 114.4 317.32 109.5 328.8 124.68 328.8 129.07 317.32"/>
        <polygon class="cls-2" points="124.68 328.8 109.5 328.8 104.26 341.11 119.98 341.11 124.68 328.8"/>
        <polygon class="cls-2" points="119.98 341.11 104.26 341.11 98.62 354.34 114.93 354.34 119.98 341.11"/>
        <polygon class="cls-2" points="383.35 317.32 387.75 328.8 402.3 328.8 397.4 317.32 383.35 317.32"/>
        <polygon class="cls-2" points="392.48 341.11 407.55 341.11 402.3 328.8 387.75 328.8 392.48 341.11"/>
        <polygon class="cls-2" points="397.56 354.34 413.18 354.34 407.55 341.11 392.48 341.11 397.56 354.34"/>
        <polygon class="cls-2" points="271.58 306.58 271.04 295.58 256.19 295.58 256.2 306.58 271.58 306.58"/>
        <polygon class="cls-2" points="383.35 317.32 397.4 317.32 392.83 306.58 379.22 306.58 383.35 317.32"/>
        <polygon class="cls-2" points="375.45 341.11 392.48 341.11 387.75 328.8 371.31 328.8 375.45 341.11"/>
        <polygon class="cls-2" points="163.93 306.58 167.08 295.58 152.23 295.58 148.55 306.58 163.93 306.58"/>
        <polygon class="cls-2" points="363.84 306.58 367.45 317.32 383.35 317.32 379.22 306.58 363.84 306.58"/>
        <polygon class="cls-2" points="392.83 306.58 388.14 295.58 375 295.58 379.22 306.58 392.83 306.58"/>
        <polygon class="cls-2" points="379.22 306.58 375 295.58 360.15 295.58 363.84 306.58 379.22 306.58"/>
        <polygon class="cls-2" points="324.35 341.11 326.9 354.34 344.56 354.34 341.39 341.11 324.35 341.11"/>
        <polygon class="cls-2" points="379.89 354.34 397.56 354.34 392.48 341.11 375.45 341.11 379.89 354.34"/>
        <polygon class="cls-2" points="363.84 306.58 360.15 295.58 345.3 295.58 348.47 306.58 363.84 306.58"/>
        <polygon class="cls-2" points="358.42 341.11 362.23 354.34 379.89 354.34 375.45 341.11 358.42 341.11"/>
        <polygon class="cls-2" points="341.39 341.11 344.56 354.34 362.23 354.34 358.42 341.11 341.39 341.11"/>
        <polygon class="cls-2" points="371.31 328.8 387.75 328.8 383.35 317.32 367.45 317.32 371.31 328.8"/>
        <polygon class="cls-2" points="225.44 306.58 226.48 295.58 211.63 295.58 210.06 306.58 225.44 306.58"/>
        <polygon class="cls-2" points="348.47 306.58 345.3 295.58 330.45 295.58 333.09 306.58 348.47 306.58"/>
        <polygon class="cls-2" points="210.06 306.58 211.63 295.58 196.78 295.58 194.69 306.58 210.06 306.58"/>
        <polygon class="cls-2" points="256.2 306.58 256.19 295.58 241.34 295.58 240.82 306.58 256.2 306.58"/>
        <polygon class="cls-2" points="194.69 306.58 196.78 295.58 181.93 295.58 179.31 306.58 194.69 306.58"/>
        <polygon class="cls-2" points="179.31 306.58 181.93 295.58 167.08 295.58 163.93 306.58 179.31 306.58"/>
        <polygon class="cls-2" points="240.82 306.58 241.34 295.58 226.48 295.58 225.44 306.58 240.82 306.58"/>
        <polygon class="cls-2" points="333.09 306.58 330.45 295.58 315.59 295.58 317.71 306.58 333.09 306.58"/>
        <polygon class="cls-2" points="317.71 306.58 315.59 295.58 300.74 295.58 302.33 306.58 317.71 306.58"/>
        <polygon class="cls-2" points="286.95 306.58 285.89 295.58 271.04 295.58 271.58 306.58 286.95 306.58"/>
        <polygon class="cls-2" points="324.35 341.11 307.32 341.11 290.29 341.11 273.26 341.11 256.23 341.11 239.2 341.11 222.17 341.11 205.14 341.11 188.1 341.11 171.07 341.11 154.04 341.11 150.26 354.34 167.92 354.34 185.58 354.34 203.25 354.34 220.91 354.34 238.58 354.34 256.24 354.34 273.91 354.34 291.57 354.34 309.23 354.34 326.9 354.34 324.35 341.11"/>
        <polygon class="cls-2" points="302.33 306.58 300.74 295.58 285.89 295.58 286.95 306.58 302.33 306.58"/>
      </g>
      <rect class="cls-7" x="63.28" y="377.57" width="378.52" height="5.37"/>
    </g>
  </g>
  <g id="Coding">
    <g>
      <g>
        <line class="cls-1" x1="141.05" y1="119.02" x2="157.55" y2="119.02"/>
        <line class="cls-9" x1="141.05" y1="127.49" x2="203" y2="127.49"/>
        <line class="cls-9" x1="236.88" y1="127.49" x2="298.83" y2="127.49"/>
        <line class="cls-1" x1="207.02" y1="127.49" x2="231.53" y2="127.49"/>
        <line class="cls-1" x1="141.05" y1="135.96" x2="176.71" y2="135.96"/>
        <line class="cls-1" x1="181.17" y1="135.96" x2="216.82" y2="135.96"/>
        <line class="cls-1" x1="221.28" y1="135.96" x2="256.93" y2="135.96"/>
        <line class="cls-1" x1="261.39" y1="135.96" x2="276.54" y2="135.96"/>
        <line class="cls-1" x1="162" y1="119.02" x2="178.49" y2="119.02"/>
        <g>
          <line class="cls-1" x1="260.05" y1="119.02" x2="276.54" y2="119.02"/>
          <line class="cls-9" x1="238.21" y1="119.02" x2="254.7" y2="119.02"/>
          <line class="cls-1" x1="182.95" y1="119.02" x2="231.08" y2="119.02"/>
        </g>
      </g>
      <g>
        <line class="cls-1" x1="141.05" y1="170.72" x2="157.55" y2="170.72"/>
        <line class="cls-9" x1="141.05" y1="179.19" x2="203" y2="179.19"/>
        <line class="cls-1" x1="236.88" y1="179.19" x2="298.83" y2="179.19"/>
        <line class="cls-1" x1="207.02" y1="179.19" x2="231.53" y2="179.19"/>
        <line class="cls-1" x1="141.05" y1="187.66" x2="176.71" y2="187.66"/>
        <line class="cls-1" x1="181.17" y1="187.66" x2="216.82" y2="187.66"/>
        <line class="cls-9" x1="221.28" y1="187.66" x2="256.93" y2="187.66"/>
        <line class="cls-1" x1="261.39" y1="187.66" x2="276.54" y2="187.66"/>
        <line class="cls-1" x1="162" y1="170.72" x2="178.49" y2="170.72"/>
        <g>
          <line class="cls-1" x1="260.05" y1="170.72" x2="276.54" y2="170.72"/>
          <line class="cls-9" x1="238.21" y1="170.72" x2="254.7" y2="170.72"/>
          <line class="cls-1" x1="182.95" y1="170.72" x2="231.08" y2="170.72"/>
        </g>
      </g>
      <g>
        <line class="cls-1" x1="141.05" y1="246.93" x2="157.55" y2="246.93"/>
        <line class="cls-9" x1="141.05" y1="255.4" x2="203" y2="255.4"/>
        <line class="cls-1" x1="236.88" y1="255.4" x2="298.83" y2="255.4"/>
        <line class="cls-1" x1="207.02" y1="255.4" x2="231.53" y2="255.4"/>
        <line class="cls-1" x1="141.05" y1="263.87" x2="176.71" y2="263.87"/>
        <line class="cls-1" x1="181.17" y1="263.87" x2="216.82" y2="263.87"/>
        <line class="cls-9" x1="221.28" y1="263.87" x2="256.93" y2="263.87"/>
        <line class="cls-1" x1="261.39" y1="263.87" x2="276.54" y2="263.87"/>
        <line class="cls-1" x1="162" y1="246.93" x2="178.49" y2="246.93"/>
        <g>
          <line class="cls-1" x1="260.05" y1="246.93" x2="276.54" y2="246.93"/>
          <line class="cls-9" x1="238.21" y1="246.93" x2="254.7" y2="246.93"/>
          <line class="cls-1" x1="182.95" y1="246.93" x2="231.08" y2="246.93"/>
        </g>
      </g>
      <g>
        <g>
          <line class="cls-1" x1="233.76" y1="144.87" x2="250.25" y2="144.87"/>
          <line class="cls-1" x1="211.92" y1="144.87" x2="228.41" y2="144.87"/>
          <line class="cls-1" x1="156.65" y1="144.87" x2="204.79" y2="144.87"/>
        </g>
        <g>
          <line class="cls-1" x1="233.76" y1="160.02" x2="250.25" y2="160.02"/>
          <line class="cls-1" x1="211.92" y1="160.02" x2="228.41" y2="160.02"/>
          <line class="cls-9" x1="156.65" y1="160.02" x2="204.79" y2="160.02"/>
        </g>
        <g>
          <line class="cls-1" x1="173.14" y1="152.45" x2="156.65" y2="152.45"/>
          <line class="cls-1" x1="194.98" y1="152.45" x2="178.49" y2="152.45"/>
          <line class="cls-9" x1="250.25" y1="152.45" x2="202.11" y2="152.45"/>
        </g>
      </g>
      <g>
        <g>
          <line class="cls-1" x1="233.76" y1="197.91" x2="250.25" y2="197.91"/>
          <line class="cls-1" x1="211.92" y1="197.91" x2="228.41" y2="197.91"/>
          <line class="cls-1" x1="156.65" y1="197.91" x2="204.79" y2="197.91"/>
        </g>
        <g>
          <line class="cls-1" x1="233.76" y1="213.06" x2="250.25" y2="213.06"/>
          <line class="cls-1" x1="211.92" y1="213.06" x2="228.41" y2="213.06"/>
          <line class="cls-9" x1="156.65" y1="213.06" x2="204.79" y2="213.06"/>
        </g>
        <g>
          <line class="cls-1" x1="173.14" y1="205.48" x2="156.65" y2="205.48"/>
          <line class="cls-1" x1="194.98" y1="205.48" x2="178.49" y2="205.48"/>
          <line class="cls-9" x1="250.25" y1="205.48" x2="202.11" y2="205.48"/>
        </g>
      </g>
      <g>
        <g>
          <line class="cls-1" x1="173.14" y1="221.98" x2="156.65" y2="221.98"/>
          <line class="cls-1" x1="194.98" y1="221.98" x2="178.49" y2="221.98"/>
          <line class="cls-9" x1="250.25" y1="221.98" x2="202.11" y2="221.98"/>
        </g>
        <g>
          <line class="cls-1" x1="173.14" y1="237.13" x2="156.65" y2="237.13"/>
          <line class="cls-1" x1="194.98" y1="237.13" x2="178.49" y2="237.13"/>
          <line class="cls-9" x1="250.25" y1="237.13" x2="202.11" y2="237.13"/>
        </g>
        <g>
          <line class="cls-1" x1="233.76" y1="229.55" x2="250.25" y2="229.55"/>
          <line class="cls-1" x1="211.92" y1="229.55" x2="228.41" y2="229.55"/>
          <line class="cls-9" x1="156.65" y1="229.55" x2="204.79" y2="229.55"/>
        </g>
      </g>
      <g>
        <rect class="cls-12" x="129.67" y="116.08" width="5.27" height="5.2"/>
        <rect class="cls-12" x="129.67" y="124.62" width="5.27" height="5.2"/>
        <rect class="cls-12" x="129.67" y="133.17" width="5.27" height="5.2"/>
        <rect class="cls-12" x="129.67" y="141.71" width="5.27" height="5.2"/>
        <rect class="cls-12" x="129.67" y="150.25" width="5.27" height="5.2"/>
        <rect class="cls-12" x="129.67" y="158.8" width="5.27" height="5.2"/>
        <rect class="cls-12" x="129.67" y="167.34" width="5.27" height="5.2"/>
        <rect class="cls-12" x="129.67" y="175.88" width="5.27" height="5.2"/>
        <rect class="cls-12" x="129.67" y="184.43" width="5.27" height="5.2"/>
        <rect class="cls-12" x="129.67" y="192.97" width="5.27" height="5.2"/>
        <rect class="cls-12" x="129.67" y="201.51" width="5.27" height="5.2"/>
        <rect class="cls-12" x="129.67" y="210.06" width="5.27" height="5.2"/>
        <rect class="cls-12" x="129.67" y="218.6" width="5.27" height="5.2"/>
        <rect class="cls-12" x="129.67" y="227.14" width="5.27" height="5.2"/>
        <rect class="cls-12" x="129.67" y="235.69" width="5.27" height="5.2"/>
        <rect class="cls-12" x="129.67" y="244.23" width="5.27" height="5.2"/>
        <rect class="cls-12" x="129.67" y="252.77" width="5.27" height="5.2"/>
        <rect class="cls-12" x="129.67" y="261.32" width="5.27" height="5.2"/>
      </g>
    </g>
  </g>
  <g id="Speech_Bubble" data-name="Speech Bubble">
    <g>
      <path class="cls-7" d="m380.04,22.66c-31.59,0-57.19,25.61-57.19,57.19,0,16.25,6.79,30.91,17.67,41.32l-8.14,15.19,19.96-6.47c8.21,4.55,17.65,7.15,27.7,7.15,31.59,0,57.19-25.61,57.19-57.19s-25.61-57.19-57.19-57.19Z"/>
      <path class="cls-5" d="m377.31,18.58c-31.59,0-57.19,25.61-57.19,57.19,0,16.25,6.79,30.91,17.67,41.32l-8.14,15.19,19.96-6.47c8.21,4.55,17.65,7.15,27.7,7.15,31.59,0,57.19-25.61,57.19-57.19s-25.61-57.19-57.19-57.19Z"/>
    </g>
  </g>
  <g id="Code">
    <g>
      <path class="cls-13" d="m358.16,99.34l-21.98-15.52v-8.22l21.98-15.68v8.3l-15.75,11.45,15.75,11.45v8.22Z"/>
      <path class="cls-13" d="m364.85,102.11l16.75-62.24h7.15l-16.83,62.24h-7.07Z"/>
      <path class="cls-13" d="m395.43,99.34v-8.22l15.83-11.53-15.83-11.37v-8.3l22.05,15.6v8.22l-22.05,15.6Z"/>
    </g>
    <g>
      <path class="cls-12" d="m360.89,95.93l-21.98-15.52v-8.22l21.98-15.68v8.3l-15.75,11.45,15.75,11.45v8.22Z"/>
      <path class="cls-12" d="m367.57,98.7l16.75-62.24h7.15l-16.83,62.24h-7.07Z"/>
      <path class="cls-12" d="m398.15,95.93v-8.22l15.83-11.53-15.83-11.37v-8.3l22.05,15.6v8.22l-22.05,15.6Z"/>
    </g>
  </g>
  <g id="Hand_2" data-name="Hand 2">
    <g>
      <path class="cls-7" d="m333.83,383.53l34.63,28.59s2.04,5.45,6.81,11.57c4.77,6.13,60.6,29.28,60.6,29.28l9.53,2.72-104.17-78.3-7.4,6.14Z"/>
      <g>
        <path class="cls-5" d="m401.28,360.82s-9.29-11.36-13.42-18.58-9.98-24.09-14.45-34.07c-4.47-9.98-11.01-13.08-18.92-16.17-7.91-3.1-11.01-2.41-11.01-.34s3.1,5.85,3.1,5.85l-13.42,2.41s-5.51-3.1-8.95-2.06c-3.44,1.03-9.98,7.57-9.98,7.57,0,0-6.88-2.41-11.01-1.38-4.13,1.03-15.48,6.54-20.3,8.95-4.82,2.41-9.98,2.75-9.63,4.82.34,2.06,5.16,5.51,9.63,4.82s12.04-3.44,16.86-3.44,7.23,1.03,9.63,2.75c2.41,1.72,12.39,15.83,13.76,17.55,1.38,1.72,2.75,8.6,2.75,8.6,0,0-6.07-2.59-9.85-6.03s-9.2-11.51-15.39-12.2c-6.19-.69-12.95,4.81-9.51,7.57,3.44,2.75,6.88,4.47,9.29,7.57,2.41,3.1,6.19,12.39,12.73,22.37,6.54,9.98,20.65,16.17,20.65,16.17l29.25,12.04s7.57-17.89,21.68-22.71c14.11-4.82,18.24-6.88,18.24-6.88l-1.72-5.16Z"/>
        <path class="cls-6" d="m273.27,317.81s3.36-.85,4.32-1.18,2.09-1.29,2.09-1.29"/>
        <path class="cls-6" d="m314.22,305.42s15.85,8.87,20.32,11.27c1.84.99,6.2,3.03,7.54,7.54,1.59,5.33,4.8,8.23,4.8,8.23"/>
        <path class="cls-6" d="m333.15,299.92s15.48,12.04,16.52,12.39c1.03.34,4.82.69,6.54,3.78,1.72,3.1,3.44,6.54,3.44,6.54"/>
        <path class="cls-6" d="m346.57,297.51s5.51-1.03,7.57,3.1c2.06,4.13,11.01,14.11,11.01,14.11"/>
        <path class="cls-6" d="m297.36,341.89s4.13-2.06,2.06-5.16c-2.06-3.1-6.19-3.1-6.19-3.1"/>
        <path class="cls-3" d="m400.59,356.35s-18.58,4.82-30.28,17.89c-11.7,13.08-11.7,24.09-10.67,25.81,1.03,1.72,23.4,13.76,23.4,13.76,0,0,13.76-26.49,23.4-33.03,9.63-6.54,16.52-8.26,16.52-8.26,0,0-17.2-11.01-17.89-12.39-.69-1.38-2.06-4.82-4.47-3.78Z"/>
        <path class="cls-3" d="m452.89,459.92s-18.92-9.63-23.4-12.04c-4.47-2.41-35.1-18.93-35.1-18.93,0,0-3.78-1.03-5.85-2.06-2.06-1.03-5.16-.69-6.54-7.91-1.38-7.23,2.06-21.68,17.55-36.13,15.48-14.45,25.12-13.76,25.12-13.76,0,0,6.54-.69,8.26.69,1.72,1.38,2.06,5.51,3.78,6.19,1.72.69,49.33,14.96,49.33,14.96"/>
        <path class="cls-6" d="m398.87,406.93s-2.06,10.32,2.75,18.92"/>
        <path class="cls-6" d="m403.68,420.35s-2.06.69,3.44,9.63"/>
      </g>
    </g>
  </g>
  <g id="Hand_1" data-name="Hand 1">
    <g>
      <path class="cls-7" d="m191.65,353.16s-22.68,26.95-29.49,32.4c-6.81,5.45-12.94,8.85-12.94,8.85l-24.51,24.51s.68,3.4-6.13,7.49c-6.81,4.09-20.43,8.85-23.83,10.21-3.4,1.36-40.85,18.38-40.85,18.38l137.74-101.85Z"/>
      <g>
        <path class="cls-5" d="m224.55,311.91c-2.38.72-10.97.24-10.97.24,0,0-5.25-4.05-7.87-6.44-2.62-2.38-9.3-16.45-12.64-17.17-3.34-.72-17.41,7.39-17.41,7.39,0,0-11.45-5.01-14.31-4.53-2.86.48-12.16,8.82-12.16,8.82,0,0-12.88-1.91-15.26,1.91-2.38,3.82-6.2,15.98-10.01,23.61s-17.64,27.9-17.64,27.9l-1.91,2.62s2.86.95,11.68,5.48c8.82,4.53,22.89,25.99,22.89,25.99,0,0,19.55-9.06,30.52-14.07,10.97-5.01,19.79-15.98,22.18-20.51,2.38-4.53,6.44-8.82,11.45-12.88s14.31-5.72,16.45-8.58-1.43-7.15-1.43-7.15c0,0,2.62-1.43,3.81-2.38,1.19-.95,5.96-3.58,6.44-6.44s-1.43-4.53-3.82-3.82Zm-36.72,22.89l4.53-13.83c1.91,1.43,10.25,4.53,10.25,4.53-5.48,1.43-14.78,9.3-14.78,9.3Z"/>
        <path class="cls-6" d="m140.14,315.97s-.72-4.05-.24-5.48c.48-1.43,9.3-10.25,9.3-10.25"/>
        <polyline class="cls-6" points="147.77 320.73 149.68 314.53 175.67 295.94"/>
        <path class="cls-6" d="m160.65,325.26s.95-5.96,2.15-6.91c1.19-.95,10.25-3.1,10.25-3.1,0,0,13.83-11.92,16.21-11.92s19.79,9.3,24.32,8.82"/>
        <path class="cls-6" d="m221.21,313.1s-3.11,0-1.44,1.92c1.67,1.91,5.25.95,6.91.48"/>
        <path class="cls-6" d="m202.62,325.5s8.58-5.01,15.5-.95"/>
        <path class="cls-6" d="m215.97,325.98l-4.77,1.67s1.91,3.82,2.15,5.25l.24,1.43"/>
        <line class="cls-6" x1="187.83" y1="334.8" x2="183.54" y2="344.34"/>
        <path class="cls-3" d="m74.57,371.76s15.02-9.78,20.51-13.83c5.48-4.05,8.35-3.34,11.21-4.29,2.86-.95,17.17,3.34,26.71,15.26,9.54,11.92,8.58,20.74,7.39,23.13-1.19,2.38-31.24,20.51-31.24,20.51,0,0-4.29-17.17-16.93-27.42-12.64-10.25-17.64-13.35-17.64-13.35Z"/>
        <path class="cls-3" d="m14.48,400.29s27.83-17.01,32.47-19.8c4.64-2.79,10.01-6.6,10.01-6.6,0,0,1.46-7.36,8.54-7.61,7.08-.25,13.91,2.54,23.19,7.61,9.28,5.08,20.75,23.6,21.97,30.96s3.66,9.64,1.71,14.47-9.28,5.08-10.74,5.08-4.88,3.05-4.88,3.05l-52.24,34.01"/>
        <path class="cls-6" d="m100.83,411.48s2.18,1.62-2.18,8.43"/>
        <path class="cls-6" d="m97.71,414.72s-.31,7.14-6.86,13.62"/>
      </g>
    </g>
  </g>
</svg>